<?xml version="1.0" standalone="no"?><!DOCTYPE svg PUBLIC "-//W3C//DTD SVG 1.1//EN" "http://www.w3.org/Graphics/SVG/1.1/DTD/svg11.dtd"><svg t="1597373119087" class="icon" viewBox="0 0 1024 1024" version="1.1" xmlns="http://www.w3.org/2000/svg" p-id="4754" width="18" height="18" xmlns:xlink="http://www.w3.org/1999/xlink"><defs><style type="text/css"></style></defs><path d="M84.424 311.552H56.64c-10.936 0-19.264-2.432-24.736-7.904C26.264 298 24 288.288 24 274.136c0-14.04 2.584-24.2 8.536-30.528 5.936-6.304 14.664-9.28 25.704-9.28h54.856c31.08 0 48.544 13.704 48.544 39.808v492.92c0 22.176-13.88 34.24-38.208 34.24-24.824 0-39.008-12-39.008-34.24V311.552zM557.016 719.304c22.544 0 35.032 13.224 35.032 36.624 0 23.88-12.44 37.416-35.04 37.416H290.688a31.248 31.248 0 0 1-19.12-6.376 37.312 37.312 0 0 1-12.104-15.616c-2.6-6.176-3.712-13.168-3.408-20.912 0.296-7.328 2.32-14.68 6.016-22.024 0.4-7.272 2.944-14.616 7.488-22l1.016-1.32c10.16-10.688 22.824-23.36 38.008-38.008a2610.784 2610.784 0 0 0 47.552-47.16 1248.48 1248.48 0 0 0 49.768-53.72 549.176 549.176 0 0 0 44.672-58.376c13.208-19.952 23.952-40.392 32.224-61.328 8.12-20.552 12.16-40.888 12.16-61.064 0-26.776-7.056-47.944-21.064-63.888-13.792-15.696-32.52-23.52-56.8-23.52-27.696 0-47.168 9.04-59.36 27.088-12.816 18.984-19.296 43.536-19.296 73.84 0 14.856-2.64 26.016-8.432 33.512-6.256 8.096-16.672 11.848-30.576 11.848-15.384 0-26.224-3.12-32.36-10.4-5.776-6.864-8.24-18.384-8.24-34.96 0-53.2 13.296-95.712 40.064-127.224C326 239.84 367.2 224 421.856 224c24.28 0 46.072 3.744 65.328 11.28 19.344 7.568 35.688 18.28 48.968 32.128 13.272 13.832 23.28 30.464 30 49.816 6.672 19.16 9.992 40.32 9.992 63.44 0 21-3.448 42.104-10.328 63.296a361.44 361.44 0 0 1-26.824 61.792 560.24 560.24 0 0 1-37.504 59.28 754.424 754.424 0 0 1-42.576 53.816c-29.848 34.52-63.152 68-99.896 100.456h198zM924.696 504.456a164.816 164.816 0 0 1 44.28 27.152c13.544 11.568 24.544 25.808 32.96 42.656 8.528 17.056 12.776 36.56 12.776 58.432 0 25.96-4.448 49.304-13.384 69.96-8.912 20.616-21.344 38.36-37.272 53.168-15.92 14.8-34.888 26.096-56.84 33.88-21.824 7.736-45.912 11.584-72.24 11.584-30.216 0-56.224-4.84-78-14.608-21.616-9.704-39.336-21.976-53.088-36.848-13.68-14.8-23.776-30.928-30.24-48.368-6.416-17.28-9.648-33.304-9.632-48.56 0.624-10.64 4.128-20.048 10.48-27.992 6.848-8.56 16.32-12.936 27.712-12.936 8.128 0 16.288 2.936 24.432 8.576 9.008 6.24 14.072 16.352 15.36 30.032 0.48 9.6 2.76 18.96 6.864 28.136 4.104 9.16 10.032 17.632 17.84 25.44 7.656 7.656 17.44 13.824 29.432 18.472 12 4.64 26.528 7.008 43.616 7.008 14.944 0 28.4-2.344 40.44-7.008 12-4.656 22.216-11.104 30.704-19.352a84.8 84.8 0 0 0 19.624-29.456c4.64-11.488 6.968-23.856 6.968-37.152 0-16.752-3.28-31.08-9.768-43.104-6.576-12.184-15.304-22.112-26.216-29.88-11.128-7.912-23.76-13.736-37.952-17.464a177.128 177.128 0 0 0-45.264-5.704c-9.344 0-17.888-2.216-25.496-6.656-8.008-4.664-13.488-11.736-16.224-20.848-3.296-7.68-3.224-16.624-0.184-26.32 4.264-15.656 17.976-23.392 38.72-23.392 12.608 0 24.568-2.656 35.968-7.992a105.976 105.976 0 0 0 30.32-21.072 101.336 101.336 0 0 0 20.64-29.864c5.104-11.16 7.632-22.48 7.632-34.04 0-25.912-7.6-45.16-22.712-58.376-15.472-13.544-34-20.28-55.944-20.28-22.856 0-41.08 7.024-55.168 21.104-14.048 14.056-21.104 33.072-21.104 57.552 0 12.336-3.064 22.48-9.392 30.136-6.696 8.112-16.8 12.048-29.616 12.048-10.48 0-19.32-4.504-25.848-13.096-6.184-8.136-9.184-18.712-9.184-31.472 0-22.8 3.92-43.232 11.8-61.248 7.896-18.04 18.944-33.2 33.12-45.392 14.008-12.048 30.112-21.288 48.264-27.712 18.104-6.4 37.688-9.6 58.72-9.6 19.856 0 38.92 2.76 57.176 8.296 18.448 5.592 34.72 14.008 48.784 25.256 14.2 11.36 25.544 25.824 34.008 43.312 8.512 17.584 12.72 38.376 12.72 62.32 0 19.584-3.24 37.072-9.776 52.424a148.592 148.592 0 0 1-25.208 40.32 174.256 174.256 0 0 1-34.16 29.984c-5.408 3.6-10.792 6.944-16.152 10.024 8.176 2.24 16.408 5.088 24.704 8.52z" p-id="4755" fill="#2d8cf0"></path></svg>