<svg  preserveAspectRatio="none" t="1710679241924" class="icon" viewBox="0 0 1024 1024" version="1.1" xmlns="http://www.w3.org/2000/svg" p-id="4301" width="200" height="200"><path d="M474.7 71.7c23-12.3 50.7-12.3 73.7 0l332.4 177.1a78.34 78.34 0 0 1 41.6 69.2v377.4c0 28.5-15.4 54.7-40.3 68.5L549.8 949.3a78.842 78.842 0 0 1-76.5 0L141 763.8c-24.9-13.8-40.3-40-40.4-68.5V317.9c0-29 16-55.7 41.6-69.3L474.7 71.7z m36.8 65l-2 0.5-332.3 177c-1.4 0.7-2.2 2.1-2.2 3.7v377.4c0 1.5 0.8 2.9 2.1 3.6l332.4 185.4c1.2 0.7 2.7 0.7 4 0l332.4-185.4c1.3-0.7 2.1-2.1 2.1-3.6V317.9c0-1.5-0.8-3-2.2-3.7l-332.4-177c-1.2-0.6-2.6-0.6-3.8 0l1.9-0.5z m249.4 233.9c9.1 15.6 4.1 35.6-11.4 44.9l-0.5 0.3-204.5 119.6v234.8c0.1 18.2-14.5 33.2-32.8 33.3-18.2 0.1-33.2-14.5-33.3-32.8V537L271.7 415.7c-15.6-9.5-20.5-29.8-11-45.4 9.2-15 28.5-20.2 44-11.8l0.5 0.3L509.9 479l205.6-120.2c15.7-9.2 36-3.9 45.2 11.8h0.2z" fill="#ffffff" p-id="4302"></path></svg>