<?xml version="1.0" standalone="no"?><!DOCTYPE svg PUBLIC "-//W3C//DTD SVG 1.1//EN" "http://www.w3.org/Graphics/SVG/1.1/DTD/svg11.dtd"><svg t="1597373092517" class="icon" viewBox="0 0 1024 1024" version="1.1" xmlns="http://www.w3.org/2000/svg" p-id="4456" width="16" height="16" xmlns:xlink="http://www.w3.org/1999/xlink"><defs><style type="text/css"></style></defs><path d="M896 132H748V80a36 36 0 1 0-72 0v52h-320V80a36 36 0 1 0-72 0v52H128a44 44 0 0 0-44 44v704a44 44 0 0 0 44 44h768a44 44 0 0 0 44-44V176a44 44 0 0 0-44-44z m-612 72V224a36 36 0 0 0 72 0v-20h320V224a36 36 0 1 0 72 0v-20h120V336h-712V204h128z m-128 648V408h712v444h-712z" p-id="4457" fill="#2d8cf0"></path></svg>